<svg width="206" height="40" viewBox="0 0 206 40" fill="none" xmlns="http://www.w3.org/2000/svg">
<g clip-path="url(#clip0_6_2)">
<path d="M6.075 18.3C10.1 18.3 12.65 16.2 12.65 12.85C12.65 10.275 11.275 8.775 8.025 7.625C5.45 6.7 4.875 6.025 4.875 4.95C4.875 3.75 6.05 2.975 7.9 2.975C8.975 2.975 10.075 3.175 11.45 3.725L11.725 0.874998C10.35 0.425 9.05 0.249999 7.5 0.249999C3.775 0.249999 1.25 2.2 1.25 5.3C1.25 7.775 2.575 9.175 5.675 10.3C8.325 11.275 9.05 11.975 9.05 13.3C9.05 14.7 7.725 15.475 5.875 15.475C4.65 15.475 3.275 15.2 1.775 14.475L1.45 17.55C2.9 18.05 4.4 18.3 6.075 18.3ZM15.7963 18H19.3213V0.55H15.7963V18ZM23.5111 18H26.7361V9.475C26.7361 7.775 26.7111 5.075 26.6611 3.075H26.7111C27.0861 4.45 28.1361 7.85 28.4111 8.625L31.6611 18H34.8111L38.1861 8.525C38.5861 7.25 39.3861 4.75 39.8861 3.075H39.9361C39.8861 5.075 39.8611 7.775 39.8611 9.475V18H43.2361V0.55H37.7611L34.9611 8.875C34.4861 10.325 33.8861 12.425 33.4111 14.05H33.3611C32.9611 12.425 32.3611 10.325 31.8861 8.875L29.1611 0.55H23.5111V18ZM47.4369 18H57.8369V15.075H50.9119V10.475H57.2119V7.65H50.9119V3.45H57.7619V0.55H47.4369V18ZM69.1006 18.3C74.3006 18.3 77.6756 14.775 77.6756 9.2C77.6756 3.675 74.4256 0.249999 69.3006 0.249999C63.8256 0.249999 60.6256 3.525 60.6256 9.3C60.6256 14.825 63.9506 18.3 69.1006 18.3ZM69.2006 15.575C66.3006 15.575 64.4006 13.1 64.4006 9.3C64.4006 5.475 66.3006 2.975 69.1006 2.975C72.0256 2.975 73.9256 5.375 73.9256 9.275C73.9256 13.025 71.9756 15.575 69.2006 15.575ZM81.0551 18H84.2301V9.85C84.2301 8.35 84.1801 5.15 84.1051 4.075H84.1551C84.6301 5.225 85.7801 7.725 86.6801 9.45L91.1551 18H95.6051V0.55H92.4301V7.875C92.4301 9.625 92.5051 13 92.5801 14.275H92.5301C92.0051 13.05 90.8051 10.425 90.1551 9.175L85.7551 0.55H81.0551V18ZM106.055 18H109.58V11.35H110.455C114.455 11.35 117.805 10.075 117.805 5.9C117.805 1.575 114.33 0.55 110.455 0.55H106.055V18ZM109.58 8.675V3.2H110.205C112.83 3.2 114.205 3.85 114.205 5.925C114.205 8.15 112.58 8.675 110.205 8.675H109.58ZM120.411 18H123.936V0.55H120.411V18ZM128.125 18H138.425V15H131.65V0.55H128.125V18ZM140.967 18H151.367V15.075H144.442V10.475H150.742V7.65H144.442V3.45H151.292V0.55H140.967V18ZM159.181 18H163.456L169.681 0.55H166.131L162.381 11.925C162.131 12.7 161.731 14.05 161.481 14.95H161.431C161.181 14.05 160.731 12.725 160.481 11.925L156.781 0.55H153.006L159.181 18ZM175.875 18.3C179.9 18.3 182.45 16.2 182.45 12.85C182.45 10.275 181.075 8.775 177.825 7.625C175.25 6.7 174.675 6.025 174.675 4.95C174.675 3.75 175.85 2.975 177.7 2.975C178.775 2.975 179.875 3.175 181.25 3.725L181.525 0.874998C180.15 0.425 178.85 0.249999 177.3 0.249999C173.575 0.249999 171.05 2.2 171.05 5.3C171.05 7.775 172.375 9.175 175.475 10.3C178.125 11.275 178.85 11.975 178.85 13.3C178.85 14.7 177.525 15.475 175.675 15.475C174.45 15.475 173.075 15.2 171.575 14.475L171.25 17.55C172.7 18.05 174.2 18.3 175.875 18.3ZM185.596 18H189.121V9.6H189.171C190.096 10.925 191.296 12.525 191.946 13.3L195.796 18H200.546L192.471 8.7L199.846 0.55H195.471L192.196 4.4C191.521 5.2 189.871 7.25 189.171 8.15H189.121V0.55H185.596V18ZM202.417 18H205.942V0.55H202.417V18Z" fill="black"/>
<path d="M89.506 27.4H82.72C82.72 27.4 82.72 27.508 82.72 27.544C82.99 27.706 83.116 27.976 83.116 28.606V38.812C83.116 39.442 82.99 39.712 82.72 39.874C82.72 39.91 82.72 40 82.72 40H84.934C84.934 40 84.934 39.91 84.934 39.874C84.664 39.712 84.538 39.442 84.538 38.812V33.574L88.678 33.97V33.052L84.538 33.43V27.544H86.05C88.048 27.544 89.182 28.732 89.992 29.65L90.082 29.596L89.506 27.4ZM95.139 31.342C92.727 31.342 90.261 33.142 90.261 36.112C90.261 38.632 92.331 40.108 94.761 40.108C97.173 40.108 99.639 38.218 99.639 35.338C99.639 32.854 97.551 31.342 95.139 31.342ZM96.147 39.784C94.095 40.396 92.403 38.848 91.773 36.688C91.143 34.51 91.701 32.26 93.753 31.666C95.805 31.072 97.497 32.602 98.127 34.762C98.757 36.94 98.199 39.19 96.147 39.784ZM109.284 39.874C108.996 39.712 108.87 39.442 108.87 38.812V31.342H108.744L107.052 31.738C107.052 31.738 107.052 31.828 107.052 31.864C107.394 31.918 107.448 32.098 107.448 32.728V34.114C107.448 35.626 107.088 39.388 105.072 39.784C103.524 40.072 102.714 38.776 102.714 37.21V31.342H102.588L100.896 31.738C100.896 31.738 100.896 31.828 100.896 31.864C101.238 31.918 101.292 32.098 101.292 32.728V36.94C101.292 39.064 102.606 40.108 104.262 40.108C106.602 40.108 107.214 37.66 107.448 35.626V40H109.284C109.284 40 109.284 39.91 109.284 39.874ZM118.934 38.812C118.862 38.146 118.682 36.256 118.502 34.51C118.286 32.35 117.026 31.342 115.55 31.342C113.21 31.342 112.598 33.79 112.364 35.806V31.342H112.238L110.546 31.738C110.546 31.738 110.546 31.828 110.546 31.864C110.888 31.918 110.942 32.098 110.942 32.728V38.812C110.942 39.442 110.816 39.712 110.546 39.874C110.546 39.91 110.546 40 110.546 40H112.778C112.778 40 112.778 39.91 112.778 39.874C112.49 39.712 112.364 39.442 112.364 38.812V37.336C112.364 35.824 112.742 32.062 114.758 31.666C116.306 31.36 116.972 32.89 117.098 34.24C117.188 35.176 117.458 38.218 117.512 38.812C117.566 39.406 117.494 39.712 117.206 39.874C117.206 39.91 117.206 40 117.206 40H119.438C119.438 40 119.438 39.91 119.438 39.874C119.168 39.712 119.006 39.46 118.934 38.812ZM129.283 39.874C129.013 39.712 128.887 39.442 128.887 38.812V27.022H128.761L127.051 27.4C127.051 27.4 127.051 27.508 127.051 27.544C127.411 27.598 127.465 27.778 127.465 28.408V31.504C127.159 31.414 126.799 31.342 126.385 31.342C124.387 31.342 120.247 32.098 120.355 36.544C120.427 38.848 122.227 40.108 123.685 40.108C126.205 40.108 127.123 37.264 127.465 35.176V40H129.283C129.283 40 129.283 39.91 129.283 39.874ZM124.495 39.784C122.947 40.072 121.849 38.38 121.759 36.814C121.507 32.224 124.639 31.468 126.385 31.432C126.961 31.432 127.375 31.576 127.465 31.594V34.114C127.465 35.626 126.511 39.388 124.495 39.784ZM137.498 34.186H137.894C137.894 34.186 139.01 34.186 139.172 34.186C138.92 32.008 136.814 31.27 135.284 31.342C133.304 31.45 130.478 32.8 130.568 35.914C130.64 38.884 133.034 40.108 135.518 40.108C138.074 40.108 139.208 38.416 139.316 37.138C139.46 35.5 138.524 34.456 137.498 34.186ZM134.474 31.558C136.238 31.216 137.642 32.476 137.876 34.042H132.134C132.458 32.818 133.25 31.792 134.474 31.558ZM139.154 37.174C138.974 38.578 137.624 39.64 136.076 39.712C134.24 39.784 132.89 38.956 132.224 37.066C131.918 36.202 131.864 35.14 132.098 34.186H136.76C138.128 34.186 139.37 35.302 139.154 37.174ZM145.015 31.342C143.107 31.342 142.603 33.988 142.423 36.166V31.342H142.279L140.587 31.738C140.587 31.738 140.587 31.828 140.587 31.864C140.947 31.918 141.001 32.098 141.001 32.728V38.812C141.001 39.442 140.875 39.712 140.587 39.874C140.587 39.91 140.587 40 140.587 40H142.819C142.819 40 142.819 39.91 142.819 39.874C142.549 39.712 142.423 39.442 142.423 38.812V38.11C142.423 36.58 142.657 31.936 144.421 31.666C145.393 31.522 145.897 32.854 145.933 33.88L146.059 33.952L147.157 32.404C146.545 31.684 145.987 31.342 145.015 31.342ZM165.153 29.524C164.757 28.84 163.965 28.588 163.155 29.164C162.417 29.686 161.949 31.072 161.265 32.44C160.653 33.664 160.095 34.906 159.357 35.338C158.781 35.68 158.133 35.752 157.953 35.23C157.737 34.618 158.511 33.916 159.645 33.286L159.609 33.178C158.475 33.808 156.855 34.726 157.269 35.68C157.539 36.292 158.511 36.274 159.285 35.716C159.987 35.194 160.473 34.33 160.923 33.448C162.885 34.384 162.705 39.91 157.431 39.91C155.091 39.91 153.633 38.434 153.489 36.868C153.255 34.276 154.839 32.332 157.737 33.394C157.773 33.322 157.791 33.268 157.791 33.268C155.631 32.494 154.443 31.108 154.443 29.542C154.443 28.462 154.857 27.58 155.595 27.274C156.801 26.77 158.547 27.508 159.735 29.506H159.861L160.203 27.652C158.151 26.878 156.711 26.752 155.361 27.202C154.011 27.634 153.165 28.354 153.075 29.632C152.913 31.864 155.379 32.512 156.837 32.98C154.137 32.296 151.635 33.97 152.085 36.778C152.337 38.344 154.335 40.108 157.341 40.108C162.669 40.108 162.921 34.906 161.373 33.61C161.985 33.79 162.759 33.826 163.605 33.286C164.883 32.476 165.837 30.712 165.153 29.524ZM163.551 33.214C162.489 33.898 161.481 33.556 160.977 33.322C161.121 33.034 161.265 32.746 161.391 32.476C161.931 31.378 162.453 30.046 162.921 29.74C163.407 29.398 163.983 29.452 164.451 30.136C165.027 31 164.703 32.458 163.551 33.214ZM183.184 36.382C182.266 38.182 180.88 39.244 179.26 39.478C176.092 39.964 173.5 38.308 172.528 35.14C171.556 31.954 172.672 28.318 175.75 27.652C178.108 27.148 180.25 28.696 181.564 30.784H181.69L182.23 28.732C180.7 27.724 179.53 27.22 177.586 27.22C174.022 27.22 170.8 30.1 170.8 33.664C170.8 37.228 173.878 40.108 177.424 40.108C180.61 40.108 182.338 38.452 183.31 36.436L183.184 36.382ZM192.164 37.75C191.318 38.848 189.824 39.874 187.844 39.874H186.386V32.998L190.922 33.376V32.458L186.386 32.854V27.544H187.646C189.644 27.544 190.76 28.534 191.588 29.47L191.678 29.398L191.3 27.4H184.568C184.568 27.4 184.568 27.508 184.568 27.544C184.838 27.706 184.964 27.976 184.964 28.606V38.812C184.964 39.442 184.838 39.712 184.568 39.874C184.568 39.91 184.568 40 184.568 40H191.876L192.272 37.822L192.164 37.75ZM199.535 27.22C195.971 27.22 193.001 30.1 193.001 33.664C193.001 37.21 195.971 40.108 199.535 40.108C203.099 40.108 206.069 37.21 206.069 33.664C206.069 30.1 203.099 27.22 199.535 27.22ZM201.371 39.676C198.365 40.594 195.701 38.308 194.729 35.122C193.757 31.954 194.693 28.57 197.699 27.652C200.705 26.734 203.369 29.02 204.341 32.188C205.313 35.374 204.377 38.758 201.371 39.676Z" fill="#E4BF79"/>
</g>
<defs>
<clipPath id="clip0_6_2">
<rect width="206" height="40" fill="white"/>
</clipPath>
</defs>
</svg>
