<svg width="230" height="40" viewBox="0 0 230 40" fill="none" xmlns="http://www.w3.org/2000/svg">
<g clip-path="url(#clip0_6_2)">
<path d="M30.075 18.3C34.1 18.3 36.65 16.2 36.65 12.85C36.65 10.275 35.275 8.775 32.025 7.625C29.45 6.7 28.875 6.025 28.875 4.95C28.875 3.75 30.05 2.975 31.9 2.975C32.975 2.975 34.075 3.175 35.45 3.725L35.725 0.874998C34.35 0.425 33.05 0.249999 31.5 0.249999C27.775 0.249999 25.25 2.2 25.25 5.3C25.25 7.775 26.575 9.175 29.675 10.3C32.325 11.275 33.05 11.975 33.05 13.3C33.05 14.7 31.725 15.475 29.875 15.475C28.65 15.475 27.275 15.2 25.775 14.475L25.45 17.55C26.9 18.05 28.4 18.3 30.075 18.3ZM39.7963 18H43.3213V0.55H39.7963V18ZM47.5111 18H50.7361V9.475C50.7361 7.775 50.7111 5.075 50.6611 3.075H50.7111C51.0861 4.45 52.1361 7.85 52.4111 8.625L55.6611 18H58.8111L62.1861 8.525C62.5861 7.25 63.3861 4.75 63.8861 3.075H63.9361C63.8861 5.075 63.8611 7.775 63.8611 9.475V18H67.2361V0.55H61.7611L58.9611 8.875C58.4861 10.325 57.8861 12.425 57.4111 14.05H57.3611C56.9611 12.425 56.3611 10.325 55.8861 8.875L53.1611 0.55H47.5111V18ZM71.4369 18H81.8369V15.075H74.9119V10.475H81.2119V7.65H74.9119V3.45H81.7619V0.55H71.4369V18ZM93.1006 18.3C98.3006 18.3 101.676 14.775 101.676 9.2C101.676 3.675 98.4256 0.249999 93.3006 0.249999C87.8256 0.249999 84.6256 3.525 84.6256 9.3C84.6256 14.825 87.9506 18.3 93.1006 18.3ZM93.2006 15.575C90.3006 15.575 88.4006 13.1 88.4006 9.3C88.4006 5.475 90.3006 2.975 93.1006 2.975C96.0256 2.975 97.9256 5.375 97.9256 9.275C97.9256 13.025 95.9756 15.575 93.2006 15.575ZM105.055 18H108.23V9.85C108.23 8.35 108.18 5.15 108.105 4.075H108.155C108.63 5.225 109.78 7.725 110.68 9.45L115.155 18H119.605V0.55H116.43V7.875C116.43 9.625 116.505 13 116.58 14.275H116.53C116.005 13.05 114.805 10.425 114.155 9.175L109.755 0.55H105.055V18ZM130.055 18H133.58V11.35H134.455C138.455 11.35 141.805 10.075 141.805 5.9C141.805 1.575 138.33 0.55 134.455 0.55H130.055V18ZM133.58 8.675V3.2H134.205C136.83 3.2 138.205 3.85 138.205 5.925C138.205 8.15 136.58 8.675 134.205 8.675H133.58ZM144.411 18H147.936V0.55H144.411V18ZM152.125 18H162.425V15H155.65V0.55H152.125V18ZM164.967 18H175.367V15.075H168.442V10.475H174.742V7.65H168.442V3.45H175.292V0.55H164.967V18ZM183.181 18H187.456L193.681 0.55H190.131L186.381 11.925C186.131 12.7 185.731 14.05 185.481 14.95H185.431C185.181 14.05 184.731 12.725 184.481 11.925L180.781 0.55H177.006L183.181 18ZM199.875 18.3C203.9 18.3 206.45 16.2 206.45 12.85C206.45 10.275 205.075 8.775 201.825 7.625C199.25 6.7 198.675 6.025 198.675 4.95C198.675 3.75 199.85 2.975 201.7 2.975C202.775 2.975 203.875 3.175 205.25 3.725L205.525 0.874998C204.15 0.425 202.85 0.249999 201.3 0.249999C197.575 0.249999 195.05 2.2 195.05 5.3C195.05 7.775 196.375 9.175 199.475 10.3C202.125 11.275 202.85 11.975 202.85 13.3C202.85 14.7 201.525 15.475 199.675 15.475C198.45 15.475 197.075 15.2 195.575 14.475L195.25 17.55C196.7 18.05 198.2 18.3 199.875 18.3ZM209.596 18H213.121V9.6H213.171C214.096 10.925 215.296 12.525 215.946 13.3L219.796 18H224.546L216.471 8.7L223.846 0.55H219.471L216.196 4.4C215.521 5.2 213.871 7.25 213.171 8.15H213.121V0.55H209.596V18ZM226.417 18H229.942V0.55H226.417V18Z" fill="black"/>
<path d="M113.506 27.4H106.72C106.72 27.4 106.72 27.508 106.72 27.544C106.99 27.706 107.116 27.976 107.116 28.606V38.812C107.116 39.442 106.99 39.712 106.72 39.874C106.72 39.91 106.72 40 106.72 40H108.934C108.934 40 108.934 39.91 108.934 39.874C108.664 39.712 108.538 39.442 108.538 38.812V33.574L112.678 33.97V33.052L108.538 33.43V27.544H110.05C112.048 27.544 113.182 28.732 113.992 29.65L114.082 29.596L113.506 27.4ZM119.139 31.342C116.727 31.342 114.261 33.142 114.261 36.112C114.261 38.632 116.331 40.108 118.761 40.108C121.173 40.108 123.639 38.218 123.639 35.338C123.639 32.854 121.551 31.342 119.139 31.342ZM120.147 39.784C118.095 40.396 116.403 38.848 115.773 36.688C115.143 34.51 115.701 32.26 117.753 31.666C119.805 31.072 121.497 32.602 122.127 34.762C122.757 36.94 122.199 39.19 120.147 39.784ZM133.284 39.874C132.996 39.712 132.87 39.442 132.87 38.812V31.342H132.744L131.052 31.738C131.052 31.738 131.052 31.828 131.052 31.864C131.394 31.918 131.448 32.098 131.448 32.728V34.114C131.448 35.626 131.088 39.388 129.072 39.784C127.524 40.072 126.714 38.776 126.714 37.21V31.342H126.588L124.896 31.738C124.896 31.738 124.896 31.828 124.896 31.864C125.238 31.918 125.292 32.098 125.292 32.728V36.94C125.292 39.064 126.606 40.108 128.262 40.108C130.602 40.108 131.214 37.66 131.448 35.626V40H133.284C133.284 40 133.284 39.91 133.284 39.874ZM142.934 38.812C142.862 38.146 142.682 36.256 142.502 34.51C142.286 32.35 141.026 31.342 139.55 31.342C137.21 31.342 136.598 33.79 136.364 35.806V31.342H136.238L134.546 31.738C134.546 31.738 134.546 31.828 134.546 31.864C134.888 31.918 134.942 32.098 134.942 32.728V38.812C134.942 39.442 134.816 39.712 134.546 39.874C134.546 39.91 134.546 40 134.546 40H136.778C136.778 40 136.778 39.91 136.778 39.874C136.49 39.712 136.364 39.442 136.364 38.812V37.336C136.364 35.824 136.742 32.062 138.758 31.666C140.306 31.36 140.972 32.89 141.098 34.24C141.188 35.176 141.458 38.218 141.512 38.812C141.566 39.406 141.494 39.712 141.206 39.874C141.206 39.91 141.206 40 141.206 40H143.438C143.438 40 143.438 39.91 143.438 39.874C143.168 39.712 143.006 39.46 142.934 38.812ZM153.283 39.874C153.013 39.712 152.887 39.442 152.887 38.812V27.022H152.761L151.051 27.4C151.051 27.4 151.051 27.508 151.051 27.544C151.411 27.598 151.465 27.778 151.465 28.408V31.504C151.159 31.414 150.799 31.342 150.385 31.342C148.387 31.342 144.247 32.098 144.355 36.544C144.427 38.848 146.227 40.108 147.685 40.108C150.205 40.108 151.123 37.264 151.465 35.176V40H153.283C153.283 40 153.283 39.91 153.283 39.874ZM148.495 39.784C146.947 40.072 145.849 38.38 145.759 36.814C145.507 32.224 148.639 31.468 150.385 31.432C150.961 31.432 151.375 31.576 151.465 31.594V34.114C151.465 35.626 150.511 39.388 148.495 39.784ZM161.498 34.186H161.894C161.894 34.186 163.01 34.186 163.172 34.186C162.92 32.008 160.814 31.27 159.284 31.342C157.304 31.45 154.478 32.8 154.568 35.914C154.64 38.884 157.034 40.108 159.518 40.108C162.074 40.108 163.208 38.416 163.316 37.138C163.46 35.5 162.524 34.456 161.498 34.186ZM158.474 31.558C160.238 31.216 161.642 32.476 161.876 34.042H156.134C156.458 32.818 157.25 31.792 158.474 31.558ZM163.154 37.174C162.974 38.578 161.624 39.64 160.076 39.712C158.24 39.784 156.89 38.956 156.224 37.066C155.918 36.202 155.864 35.14 156.098 34.186H160.76C162.128 34.186 163.37 35.302 163.154 37.174ZM169.015 31.342C167.107 31.342 166.603 33.988 166.423 36.166V31.342H166.279L164.587 31.738C164.587 31.738 164.587 31.828 164.587 31.864C164.947 31.918 165.001 32.098 165.001 32.728V38.812C165.001 39.442 164.875 39.712 164.587 39.874C164.587 39.91 164.587 40 164.587 40H166.819C166.819 40 166.819 39.91 166.819 39.874C166.549 39.712 166.423 39.442 166.423 38.812V38.11C166.423 36.58 166.657 31.936 168.421 31.666C169.393 31.522 169.897 32.854 169.933 33.88L170.059 33.952L171.157 32.404C170.545 31.684 169.987 31.342 169.015 31.342ZM189.153 29.524C188.757 28.84 187.965 28.588 187.155 29.164C186.417 29.686 185.949 31.072 185.265 32.44C184.653 33.664 184.095 34.906 183.357 35.338C182.781 35.68 182.133 35.752 181.953 35.23C181.737 34.618 182.511 33.916 183.645 33.286L183.609 33.178C182.475 33.808 180.855 34.726 181.269 35.68C181.539 36.292 182.511 36.274 183.285 35.716C183.987 35.194 184.473 34.33 184.923 33.448C186.885 34.384 186.705 39.91 181.431 39.91C179.091 39.91 177.633 38.434 177.489 36.868C177.255 34.276 178.839 32.332 181.737 33.394C181.773 33.322 181.791 33.268 181.791 33.268C179.631 32.494 178.443 31.108 178.443 29.542C178.443 28.462 178.857 27.58 179.595 27.274C180.801 26.77 182.547 27.508 183.735 29.506H183.861L184.203 27.652C182.151 26.878 180.711 26.752 179.361 27.202C178.011 27.634 177.165 28.354 177.075 29.632C176.913 31.864 179.379 32.512 180.837 32.98C178.137 32.296 175.635 33.97 176.085 36.778C176.337 38.344 178.335 40.108 181.341 40.108C186.669 40.108 186.921 34.906 185.373 33.61C185.985 33.79 186.759 33.826 187.605 33.286C188.883 32.476 189.837 30.712 189.153 29.524ZM187.551 33.214C186.489 33.898 185.481 33.556 184.977 33.322C185.121 33.034 185.265 32.746 185.391 32.476C185.931 31.378 186.453 30.046 186.921 29.74C187.407 29.398 187.983 29.452 188.451 30.136C189.027 31 188.703 32.458 187.551 33.214ZM207.184 36.382C206.266 38.182 204.88 39.244 203.26 39.478C200.092 39.964 197.5 38.308 196.528 35.14C195.556 31.954 196.672 28.318 199.75 27.652C202.108 27.148 204.25 28.696 205.564 30.784H205.69L206.23 28.732C204.7 27.724 203.53 27.22 201.586 27.22C198.022 27.22 194.8 30.1 194.8 33.664C194.8 37.228 197.878 40.108 201.424 40.108C204.61 40.108 206.338 38.452 207.31 36.436L207.184 36.382ZM216.164 37.75C215.318 38.848 213.824 39.874 211.844 39.874H210.386V32.998L214.922 33.376V32.458L210.386 32.854V27.544H211.646C213.644 27.544 214.76 28.534 215.588 29.47L215.678 29.398L215.3 27.4H208.568C208.568 27.4 208.568 27.508 208.568 27.544C208.838 27.706 208.964 27.976 208.964 28.606V38.812C208.964 39.442 208.838 39.712 208.568 39.874C208.568 39.91 208.568 40 208.568 40H215.876L216.272 37.822L216.164 37.75ZM223.535 27.22C219.971 27.22 217.001 30.1 217.001 33.664C217.001 37.21 219.971 40.108 223.535 40.108C227.099 40.108 230.069 37.21 230.069 33.664C230.069 30.1 227.099 27.22 223.535 27.22ZM225.371 39.676C222.365 40.594 219.701 38.308 218.729 35.122C217.757 31.954 218.693 28.57 221.699 27.652C224.705 26.734 227.369 29.02 228.341 32.188C229.313 35.374 228.377 38.758 225.371 39.676Z" fill="#E4BF79"/>
</g>
<defs>
<clipPath id="clip0_6_2">
<rect width="230" height="40" fill="white"/>
</clipPath>
</defs>
</svg>
