<?xml version="1.0" encoding="utf-8"?>
<!-- Generator: Adobe Illustrator 26.0.1, SVG Export Plug-In . SVG Version: 6.00 Build 0)  -->
<svg version="1.1" id="Layer_1" xmlns="http://www.w3.org/2000/svg" xmlns:xlink="http://www.w3.org/1999/xlink" x="0px" y="0px"
	 viewBox="0 0 336 53" style="enable-background:new 0 0 336 53;" xml:space="preserve">
<g>
	<path d="M38.06,7.1l-2.2,7.64h-0.52C31.16,4.9,25.79,1.15,19.99,1.15c-7.27,0-11.46,4.11-11.9,8.52
		c-1.39,14.7,30.13,9.85,30.13,28.22c0,8.74-7.86,14.92-18.3,14.92c-8.74,0-14.18-2.94-19.91-7.28l2.21-8.38h0.51
		c3.75,7.49,10.58,14.18,20.21,14.18c6.25,0,11.46-4.04,12.05-8.67c1.91-15.65-29.69-10.66-29.69-29.1
		c0-5.95,4.78-13.37,16.61-13.37C27.56,0.19,33.73,3.72,38.06,7.1z"/>
	<path d="M102.22,26.5c0,14.48-12.13,26.31-26.68,26.31C61,52.81,48.87,40.98,48.87,26.5C48.87,11.95,61,0.19,75.54,0.19
		C90.09,0.19,102.22,11.95,102.22,26.5z M95.16,20.48C91.2,7.54,80.32-1.79,68.05,1.96C55.78,5.7,51.96,19.52,55.93,32.45
		c3.97,13.01,14.84,22.34,27.12,18.59C95.31,47.3,99.13,33.48,95.16,20.48z"/>
	<path d="M145.14,43.47l-1.62,8.89h-30.64c0,0,0-0.37,0-0.51c1.18-0.66,1.69-1.76,1.69-4.34V5.85c0-2.65-0.51-3.67-1.69-4.34
		c0-0.15,0-0.59,0-0.59h9.11c0,0,0,0.44,0,0.59c-1.1,0.66-1.62,1.69-1.62,4.34v46h6.69c8.16,0,14.18-4.19,17.64-8.67L145.14,43.47z"
		/>
	<path d="M206.21,26.5c0,14.48-12.13,26.31-26.68,26.31c-14.55,0-26.67-11.83-26.67-26.31c0-14.55,12.13-26.31,26.67-26.31
		C194.09,0.19,206.21,11.95,206.21,26.5z M199.16,20.48c-3.97-12.93-14.84-22.27-27.12-18.52c-12.27,3.75-16.09,17.56-12.12,30.5
		c3.97,13.01,14.84,22.34,27.12,18.59C199.3,47.3,203.12,33.48,199.16,20.48z"/>
	<path d="M248.91,15.04l-11.02,31.01l2.42,6.32h-5.8c0,0-12.2-31.6-14.4-37.33c-2.2-5.66-4.92-10.21-7.64-13.52V0.93h11.24v0.59
		c-1.84,1.91-1.25,4.48,0.81,9.85l13.08,33.95l10.73-30.28c2.35-6.61,2.72-10.21-0.44-13.52V0.93h8.74v0.59
		C253.47,4.82,251.34,8.2,248.91,15.04z"/>
	<path d="M316.23,26.5c0,14.48-12.13,26.31-26.68,26.31c-14.55,0-26.67-11.83-26.67-26.31c0-14.55,12.13-26.31,26.67-26.31
		C304.1,0.19,316.23,11.95,316.23,26.5z M309.17,20.48C305.2,7.54,294.33-1.79,282.05,1.96c-12.27,3.75-16.09,17.56-12.12,30.5
		c3.97,13.01,14.84,22.34,27.12,18.59C309.32,47.3,313.14,33.48,309.17,20.48z"/>
	<path d="M334.31,5.85v41.67c0,2.57,0.51,3.67,1.69,4.34c0,0.15,0,0.51,0,0.51h-9.11c0,0,0-0.37,0-0.51
		c1.1-0.66,1.62-1.76,1.62-4.34V5.85c0-2.57-0.51-3.67-1.62-4.34c0-0.15,0-0.59,0-0.59H336c0,0,0,0.44,0,0.59
		C334.82,2.18,334.31,3.28,334.31,5.85z"/>
</g>
</svg>
