<?xml version="1.0" encoding="utf-8"?>
<!-- Generator: Adobe Illustrator 26.0.1, SVG Export Plug-In . SVG Version: 6.00 Build 0)  -->
<svg version="1.1" id="Layer_1" xmlns="http://www.w3.org/2000/svg" xmlns:xlink="http://www.w3.org/1999/xlink" x="0px" y="0px"
	 viewBox="0 0 1920 1080" style="enable-background:new 0 0 1920 1080;" xml:space="preserve">
<style type="text/css">
	.st0{fill:#F9F9F9;}
</style>
<g>
	<g>
		<path class="st0" d="M639.14,1123.1c-62.69-18.33-119-50.46-165.22-96.71c-103.7-103.77-135.97-258.33-103.37-420.8
			c11.09-55.5,29.75-112.01,55.97-167.68c-3.53,33.3-5.38,67.44-5.38,102.09c0,74.34,8.24,145.99,23.7,213.6
			C478.97,903.12,548.05,1031.95,639.14,1123.1z"/>
		<path class="st0" d="M1713.48,485.68c-0.34-6.06-0.84-12.11-1.51-18.16c-0.5-5.89-1.18-11.6-1.85-17.32
			c-0.34-3.87-0.84-7.74-1.34-11.6c-0.67-4.37-1.18-8.58-1.85-12.78c-0.67-4.2-1.34-8.24-2.02-12.28
			c-1.01-5.89-2.02-11.77-3.19-17.66v-0.67c-1.18-5.89-2.52-11.6-3.7-17.49c-2.69-11.77-5.55-23.71-8.74-35.49
			c-1.51-5.89-3.19-11.6-4.87-17.49c-2.02-6.73-4.03-13.29-6.22-19.85c-1.51-4.54-3.03-9.08-4.54-13.46
			c-1.18-3.87-2.69-7.57-4.03-11.27c-2.02-5.89-4.2-11.6-6.55-17.32c-8.91-22.87-18.99-45.24-30.25-66.94
			c-2.35-4.71-4.87-9.42-7.23-14.13c-6.22-11.44-12.77-22.71-19.5-33.81c-3.03-5.21-6.22-10.43-9.58-15.47
			c-3.19-5.05-6.56-10.09-9.92-15.14c-3.53-5.05-6.89-10.09-10.42-14.97c-3.53-5.05-7.06-9.92-10.76-14.8
			c-3.53-4.88-7.23-9.59-10.93-14.3c-10.76-13.62-21.85-26.91-33.45-39.69c-3.19-3.7-6.56-7.4-10.09-10.93
			c-10.92-11.6-22.35-23.04-33.95-33.97c-3.53-3.53-7.23-6.9-10.93-10.09c-10.42-9.42-21.18-18.67-32.1-27.41
			c-4.03-3.36-8.07-6.56-12.1-9.59c-13.45-10.43-27.23-20.35-41.18-29.77c-4.54-3.03-8.91-5.89-13.45-8.75
			c-10.59-6.73-21.34-13.29-32.27-19.68c-4.87-2.69-9.92-5.55-14.79-8.24c-5.38-2.86-10.76-5.72-16.14-8.41
			c-5.88-3.03-11.76-5.89-17.65-8.75c-5.04-2.52-10.25-4.88-15.46-7.23c-5.21-2.35-10.59-4.71-15.97-7.06
			c-14.79-6.22-29.92-12.11-45.21-17.32c-4.87-1.85-9.92-3.53-14.79-5.05c-6.56-2.19-13.11-4.37-19.83-6.22
			c-5.88-1.68-11.77-3.36-17.65-5.05c-5.55-1.51-11.09-2.86-16.64-4.2c-6.22-1.68-12.44-3.03-18.82-4.37
			c-5.88-1.35-11.77-2.52-17.82-3.7c-5.88-1.18-11.77-2.19-17.82-3.2c-7.4-1.35-14.62-2.35-22.02-3.36
			c-4.54-0.67-9.24-1.34-13.95-1.85c-6.05-0.67-11.93-1.35-17.98-1.85c-6.05-0.67-12.1-1.18-18.15-1.51
			C996.3-215.33,978.32-216,960-216c-18.32,0-36.3,0.67-54.29,2.02c-6.05,0.34-12.1,0.84-18.15,1.51c-5.72,0.5-11.6,1.18-17.31,1.85
			c-12.27,1.35-24.54,3.2-36.64,5.21c-5.88,1.01-11.93,2.02-17.82,3.2c-6.05,1.18-11.93,2.35-17.82,3.7
			c-6.89,1.51-13.61,3.03-20.34,4.71c-4.71,1.18-9.24,2.35-13.95,3.53c-0.67,0.17-1.34,0.5-2.02,0.67
			c-5.55,1.51-11.09,3.03-16.64,4.71c-5.88,1.68-11.77,3.53-17.48,5.38c-5.55,1.68-10.92,3.53-16.3,5.55
			c-32.77,11.27-64.54,25.06-95.13,40.7c-5.38,2.69-10.92,5.55-16.13,8.41c-5.04,2.69-9.92,5.55-14.79,8.24
			c-16.64,9.59-32.77,19.68-48.41,30.27c-4.54,3.03-8.91,6.05-13.45,9.25c-10.76,7.57-21.18,15.47-31.43,23.55
			c-4.2,3.36-8.24,6.73-12.44,10.09c-8.57,7.23-17.14,14.46-25.38,22.03c-3.7,3.2-7.39,6.56-10.92,10.09
			c-11.77,10.93-23.19,22.37-33.95,33.97c-3.53,3.53-6.89,7.23-10.08,10.93c-4.37,4.71-8.57,9.59-12.77,14.46
			c-3.19,3.7-6.22,7.4-9.24,10.93c-3.87,4.71-7.73,9.42-11.43,14.3c-7.56,9.42-14.79,19.17-21.85,29.1
			c-3.36,4.88-6.89,9.92-10.25,14.97c-3.36,5.05-6.72,10.09-10.08,15.14c-3.19,5.05-6.39,10.26-9.58,15.47
			c-3.19,5.21-6.22,10.43-9.24,15.64c-3.03,5.38-6.05,10.6-8.91,15.98c-3.03,5.38-5.88,10.76-8.57,16.31
			c-11.09,21.7-21.18,44.06-30.25,66.94c-2.35,5.72-4.54,11.44-6.56,17.32c-1.34,3.7-2.69,7.4-4.03,11.27
			c-1.51,4.37-3.03,8.91-4.54,13.46c-5.88,18-11.26,36.5-15.63,55.16c-1.51,5.89-2.86,11.77-4.2,17.66
			c-1.18,5.89-2.52,11.6-3.7,17.49v0.67c-1.18,5.89-2.19,11.77-3.19,17.66c-0.67,4.04-1.34,8.07-2.02,12.28s-1.18,8.41-1.85,12.78
			c-0.5,3.87-1.01,7.74-1.34,11.6c-0.67,5.72-1.34,11.44-1.85,17.32c-0.67,6.05-1.18,12.11-1.51,18.16
			c-1.34,18-2.02,35.99-2.02,54.32s0.67,36.33,2.02,54.32c0.84,11.94,1.85,23.71,3.36,35.49c1.34,12.28,3.19,24.55,5.21,36.66
			c1.01,5.89,2.02,11.94,3.19,17.83c1.18,6.05,2.35,11.94,3.7,17.83c1.34,6.05,2.69,11.94,4.2,17.83c4.37,18.67,9.75,37,15.63,55.16
			c1.51,4.54,3.03,9.08,4.54,13.62c1.34,3.7,2.69,7.4,4.03,11.1c2.02,5.89,4.2,11.6,6.56,17.32c3.19,8.07,6.56,16.31,10.09,24.22
			c2.35,5.72,4.87,11.27,7.56,16.99c4.03,8.58,8.24,17.32,12.61,25.73c8.24,16.31,17.31,32.29,26.72,47.93
			c9.92,16.48,20.67,32.46,31.77,48.1c3.03,4.04,5.88,8.07,8.91,12.11c4.03,5.38,8.24,10.76,12.44,16.15
			c3.36,4.2,6.72,8.24,10.09,12.45c3.03,3.7,6.05,7.4,9.24,10.93c4.2,4.88,8.4,9.76,12.77,14.46c3.19,3.7,6.56,7.4,10.08,10.93
			c10.76,11.77,22.19,23.21,33.95,33.97c3.53,3.53,7.23,6.9,10.92,10.09c4.71,4.37,9.58,8.58,14.46,12.78
			c3.53,3.2,7.23,6.22,10.92,9.25c4.2,3.36,8.24,6.73,12.44,10.09c24.37,19.17,49.75,37,76.31,53.15c5.21,3.2,10.42,6.22,15.8,9.25
			c5.21,3.03,10.59,6.05,15.97,8.91c5.21,3.03,10.76,5.89,16.13,8.58c4.2,2.19,8.4,4.37,12.61,6.39c4.37,2.19,8.91,4.2,13.28,6.22
			c5.55,2.69,11.09,5.21,16.81,7.57c5.04,2.19,9.92,4.37,14.96,6.39c12.44,5.05,24.88,9.76,37.48,14.13
			c5.38,1.85,10.76,3.7,16.3,5.55c5.21,1.68,10.42,3.2,15.63,4.88c12.27,3.7,24.54,7.06,36.98,9.92c5.88,1.51,11.77,2.86,17.82,4.2
			c5.88,1.35,11.77,2.52,17.82,3.7c5.88,1.18,11.93,2.19,17.82,3.2c12.1,2.02,24.37,3.87,36.64,5.21
			c11.77,1.51,23.53,2.52,35.46,3.36c17.98,1.34,35.97,2.02,54.29,2.02c18.32,0,36.3-0.67,54.29-2.02
			c12.1-0.84,24.2-2.02,36.14-3.36c4.71-0.51,9.41-1.18,13.95-1.85c7.39-1.01,14.62-2.02,22.02-3.36c6.05-1.01,11.93-2.02,17.82-3.2
			c6.05-1.18,11.93-2.35,17.82-3.7c6.05-1.34,11.93-2.69,17.82-4.2c5.88-1.34,11.76-2.86,17.65-4.54
			c12.61-3.2,25.04-7.06,37.48-11.1c4.87-1.68,9.92-3.2,14.79-5.05c32.44-11.27,63.87-24.89,94.29-40.37
			c5.38-2.69,10.76-5.55,16.14-8.58c5.38-2.86,10.59-5.89,15.97-8.91c5.21-3.03,10.42-6.05,15.63-9.25
			c24.2-14.8,47.73-30.78,70.09-48.27c4.03-3.03,8.07-6.22,12.1-9.59c5.88-4.71,11.76-9.59,17.65-14.63
			c4.87-4.2,9.75-8.41,14.45-12.78c3.7-3.2,7.4-6.56,10.93-10.09c11.6-10.76,23.03-22.2,33.95-33.97
			c3.53-3.53,6.89-7.23,10.09-10.93c15.63-17.32,30.42-35.32,44.37-53.99c3.7-4.88,7.23-9.76,10.76-14.63
			c3.36-4.71,6.56-9.42,9.75-14.13c7.06-10.26,13.78-20.86,20.17-31.45c3.19-5.05,6.05-10.09,9.08-15.3
			c3.36-5.72,6.56-11.6,9.75-17.49c2.69-4.88,5.38-10.09,7.9-15.14c4.37-8.41,8.57-17.16,12.61-25.73
			c2.69-5.72,5.21-11.27,7.56-16.99c3.53-7.9,6.89-16.15,10.09-24.22c2.35-5.72,4.54-11.44,6.55-17.32c1.34-3.7,2.69-7.4,4.03-11.1
			c1.51-4.54,3.03-9.08,4.54-13.62c2.19-6.56,4.2-13.29,6.22-19.85c5.21-17.49,9.75-35.15,13.61-53.15
			c1.34-5.89,2.52-11.77,3.7-17.83c1.18-5.89,2.19-11.94,3.19-17.83c2.02-12.11,3.87-24.39,5.21-36.66
			c1.51-11.77,2.52-23.55,3.36-35.49c1.34-18,2.02-35.99,2.02-54.32S1714.83,503.67,1713.48,485.68z M1571.63,540
			c-20.51,71.82-52.78,143.97-96.31,213.26c-19.66,31.45-41.68,62.23-65.89,92.17c-21.18,26.07-43.87,51.3-68.41,75.85
			c-114.63,114.7-248.42,192.74-381.03,230.75c-62.52,18.16-124.88,27.41-184.88,27.41c0,0,0,0-0.17,0
			c-26.22,0-52.1-1.85-77.31-5.38c-96.14-13.62-183.03-53.48-250.43-120.93C321.98,927.84,292.07,735.1,348.54,540
			c20.5-71.98,52.78-144.14,96.31-213.43c19.67-31.45,41.68-62.23,65.89-92.17l0.17-0.17c21.01-25.9,43.7-51.13,68.07-75.52
			C693.6,43.85,827.39-34.02,960-72.03c62.69-18.33,125.22-27.41,185.39-27.41c26.22,0,52.1,1.85,77.32,5.55
			c96.14,13.45,182.87,53.15,250.26,120.59C1598.18,151.99,1628.1,344.74,1571.63,540z"/>
		<path class="st0" d="M1549.61,474.24c0,0.17,0,0.17,0,0.17c-11.09,55.5-29.75,112.01-55.97,167.68
			c3.53-33.3,5.38-67.44,5.38-102.09c0-74.17-8.24-145.65-23.53-213.09c-34.12-149.52-103.03-278.52-194.13-369.84
			c62.52,18.33,118.66,50.29,164.88,96.54C1549.94,157.37,1582.22,311.94,1549.61,474.24z"/>
	</g>
	<path class="st0" d="M894.45,1130c-62.69,12.45-124.04,15.47-182.03,8.24c-86.73-67.61-157.15-169.7-201.52-292.65
		c20.84,25.9,43.7,51.3,68.07,75.68C674.78,1017.15,783.86,1087.28,894.45,1130z"/>
	<path class="st0" d="M1409.43,234.57c-21.18-26.07-43.87-51.3-68.41-75.85C1245.22,62.85,1136.14-7.45,1025.55-50
		c62.86-12.61,124.21-15.47,182.19-8.24c0.17,0,0.17,0,0.17,0C1294.64,9.54,1365.06,111.63,1409.43,234.57z"/>
</g>
</svg>
