<svg width="167" height="50" viewBox="0 0 167 50" fill="none" xmlns="http://www.w3.org/2000/svg">
<path d="M4.86 26.24C8.08 26.24 10.12 24.56 10.12 21.88C10.12 19.82 9.02 18.62 6.42 17.7C4.36 16.96 3.9 16.42 3.9 15.56C3.9 14.6 4.84 13.98 6.32 13.98C7.18 13.98 8.06 14.14 9.16 14.58L9.38 12.3C8.28 11.94 7.24 11.8 6 11.8C3.02 11.8 1 13.36 1 15.84C1 17.82 2.06 18.94 4.54 19.84C6.66 20.62 7.24 21.18 7.24 22.24C7.24 23.36 6.18 23.98 4.7 23.98C3.72 23.98 2.62 23.76 1.42 23.18L1.16 25.64C2.32 26.04 3.52 26.24 4.86 26.24ZM12.637 26H15.457V12.04H12.637V26ZM18.8089 26H21.3889V19.18C21.3889 17.82 21.3689 15.66 21.3289 14.06H21.3689C21.6689 15.16 22.5089 17.88 22.7289 18.5L25.3289 26H27.8489L30.5489 18.42C30.8689 17.4 31.5089 15.4 31.9089 14.06H31.9489C31.9089 15.66 31.8889 17.82 31.8889 19.18V26H34.5889V12.04H30.2089L27.9689 18.7C27.5889 19.86 27.1089 21.54 26.7289 22.84H26.6889C26.3689 21.54 25.8889 19.86 25.5089 18.7L23.3289 12.04H18.8089V26ZM37.9495 26H46.2695V23.66H40.7295V19.98H45.7695V17.72H40.7295V14.36H46.2095V12.04H37.9495V26ZM55.2805 26.24C59.4405 26.24 62.1405 23.42 62.1405 18.96C62.1405 14.54 59.5405 11.8 55.4405 11.8C51.0605 11.8 48.5005 14.42 48.5005 19.04C48.5005 23.46 51.1605 26.24 55.2805 26.24ZM55.3605 24.06C53.0405 24.06 51.5205 22.08 51.5205 19.04C51.5205 15.98 53.0405 13.98 55.2805 13.98C57.6205 13.98 59.1405 15.9 59.1405 19.02C59.1405 22.02 57.5805 24.06 55.3605 24.06ZM64.8441 26H67.3841V19.48C67.3841 18.28 67.3441 15.72 67.2841 14.86H67.3241C67.7041 15.78 68.6241 17.78 69.3441 19.16L72.9241 26H76.4841V12.04H73.9441V17.9C73.9441 19.3 74.0041 22 74.0641 23.02H74.0241C73.6041 22.04 72.6441 19.94 72.1241 18.94L68.6041 12.04H64.8441V26ZM84.8441 26H87.6641V20.68H88.3641C91.5641 20.68 94.2441 19.66 94.2441 16.32C94.2441 12.86 91.4641 12.04 88.3641 12.04H84.8441V26ZM87.6641 18.54V14.16H88.1641C90.2641 14.16 91.3641 14.68 91.3641 16.34C91.3641 18.12 90.0641 18.54 88.1641 18.54H87.6641ZM96.3284 26H99.1484V12.04H96.3284V26ZM102.5 26H110.74V23.6H105.32V12.04H102.5V26ZM112.774 26H121.094V23.66H115.554V19.98H120.594V17.72H115.554V14.36H121.034V12.04H112.774V26ZM127.345 26H130.765L135.745 12.04H132.905L129.905 21.14C129.705 21.76 129.385 22.84 129.185 23.56H129.145C128.945 22.84 128.585 21.78 128.385 21.14L125.425 12.04H122.405L127.345 26ZM140.7 26.24C143.92 26.24 145.96 24.56 145.96 21.88C145.96 19.82 144.86 18.62 142.26 17.7C140.2 16.96 139.74 16.42 139.74 15.56C139.74 14.6 140.68 13.98 142.16 13.98C143.02 13.98 143.9 14.14 145 14.58L145.22 12.3C144.12 11.94 143.08 11.8 141.84 11.8C138.86 11.8 136.84 13.36 136.84 15.84C136.84 17.82 137.9 18.94 140.38 19.84C142.5 20.62 143.08 21.18 143.08 22.24C143.08 23.36 142.02 23.98 140.54 23.98C139.56 23.98 138.46 23.76 137.26 23.18L137 25.64C138.16 26.04 139.36 26.24 140.7 26.24ZM148.477 26H151.297V19.28H151.337C152.077 20.34 153.037 21.62 153.557 22.24L156.637 26H160.437L153.977 18.56L159.877 12.04H156.377L153.757 15.12C153.217 15.76 151.897 17.4 151.337 18.12H151.297V12.04H148.477V26ZM161.934 26H164.754V12.04H161.934V26Z" fill="black"/>
<path d="M69.255 35.5H63.6C63.6 35.5 63.6 35.59 63.6 35.62C63.825 35.755 63.93 35.98 63.93 36.505V45.01C63.93 45.535 63.825 45.76 63.6 45.895C63.6 45.925 63.6 46 63.6 46H65.445C65.445 46 65.445 45.925 65.445 45.895C65.22 45.76 65.115 45.535 65.115 45.01V40.645L68.565 40.975V40.21L65.115 40.525V35.62H66.375C68.04 35.62 68.985 36.61 69.66 37.375L69.735 37.33L69.255 35.5ZM73.9492 38.785C71.9392 38.785 69.8842 40.285 69.8842 42.76C69.8842 44.86 71.6092 46.09 73.6342 46.09C75.6442 46.09 77.6992 44.515 77.6992 42.115C77.6992 40.045 75.9592 38.785 73.9492 38.785ZM74.7892 45.82C73.0792 46.33 71.6692 45.04 71.1442 43.24C70.6192 41.425 71.0842 39.55 72.7942 39.055C74.5042 38.56 75.9142 39.835 76.4392 41.635C76.9642 43.45 76.4992 45.325 74.7892 45.82ZM85.7365 45.895C85.4965 45.76 85.3915 45.535 85.3915 45.01V38.785H85.2865L83.8765 39.115C83.8765 39.115 83.8765 39.19 83.8765 39.22C84.1615 39.265 84.2065 39.415 84.2065 39.94V41.095C84.2065 42.355 83.9065 45.49 82.2265 45.82C80.9365 46.06 80.2615 44.98 80.2615 43.675V38.785H80.1565L78.7465 39.115C78.7465 39.115 78.7465 39.19 78.7465 39.22C79.0315 39.265 79.0765 39.415 79.0765 39.94V43.45C79.0765 45.22 80.1715 46.09 81.5515 46.09C83.5015 46.09 84.0115 44.05 84.2065 42.355V46H85.7365C85.7365 46 85.7365 45.925 85.7365 45.895ZM93.7785 45.01C93.7185 44.455 93.5685 42.88 93.4185 41.425C93.2385 39.625 92.1885 38.785 90.9585 38.785C89.0085 38.785 88.4985 40.825 88.3035 42.505V38.785H88.1985L86.7885 39.115C86.7885 39.115 86.7885 39.19 86.7885 39.22C87.0735 39.265 87.1185 39.415 87.1185 39.94V45.01C87.1185 45.535 87.0135 45.76 86.7885 45.895C86.7885 45.925 86.7885 46 86.7885 46H88.6485C88.6485 46 88.6485 45.925 88.6485 45.895C88.4085 45.76 88.3035 45.535 88.3035 45.01V43.78C88.3035 42.52 88.6185 39.385 90.2985 39.055C91.5885 38.8 92.1435 40.075 92.2485 41.2C92.3235 41.98 92.5485 44.515 92.5935 45.01C92.6385 45.505 92.5785 45.76 92.3385 45.895C92.3385 45.925 92.3385 46 92.3385 46H94.1985C94.1985 46 94.1985 45.925 94.1985 45.895C93.9735 45.76 93.8385 45.55 93.7785 45.01ZM102.403 45.895C102.178 45.76 102.073 45.535 102.073 45.01V35.185H101.968L100.543 35.5C100.543 35.5 100.543 35.59 100.543 35.62C100.843 35.665 100.888 35.815 100.888 36.34V38.92C100.633 38.845 100.333 38.785 99.9877 38.785C98.3227 38.785 94.8727 39.415 94.9627 43.12C95.0227 45.04 96.5227 46.09 97.7377 46.09C99.8377 46.09 100.603 43.72 100.888 41.98V46H102.403C102.403 46 102.403 45.925 102.403 45.895ZM98.4127 45.82C97.1227 46.06 96.2077 44.65 96.1327 43.345C95.9227 39.52 98.5327 38.89 99.9877 38.86C100.468 38.86 100.813 38.98 100.888 38.995V41.095C100.888 42.355 100.093 45.49 98.4127 45.82ZM109.248 41.155H109.578C109.578 41.155 110.508 41.155 110.643 41.155C110.433 39.34 108.678 38.725 107.403 38.785C105.753 38.875 103.398 40 103.473 42.595C103.533 45.07 105.528 46.09 107.598 46.09C109.728 46.09 110.673 44.68 110.763 43.615C110.883 42.25 110.103 41.38 109.248 41.155ZM106.728 38.965C108.198 38.68 109.368 39.73 109.563 41.035H104.778C105.048 40.015 105.708 39.16 106.728 38.965ZM110.628 43.645C110.478 44.815 109.353 45.7 108.063 45.76C106.533 45.82 105.408 45.13 104.853 43.555C104.598 42.835 104.553 41.95 104.748 41.155H108.633C109.773 41.155 110.808 42.085 110.628 43.645ZM115.513 38.785C113.923 38.785 113.503 40.99 113.353 42.805V38.785H113.233L111.823 39.115C111.823 39.115 111.823 39.19 111.823 39.22C112.123 39.265 112.168 39.415 112.168 39.94V45.01C112.168 45.535 112.063 45.76 111.823 45.895C111.823 45.925 111.823 46 111.823 46H113.683C113.683 46 113.683 45.925 113.683 45.895C113.458 45.76 113.353 45.535 113.353 45.01V44.425C113.353 43.15 113.548 39.28 115.018 39.055C115.828 38.935 116.248 40.045 116.278 40.9L116.383 40.96L117.298 39.67C116.788 39.07 116.323 38.785 115.513 38.785ZM132.294 37.27C131.964 36.7 131.304 36.49 130.629 36.97C130.014 37.405 129.624 38.56 129.054 39.7C128.544 40.72 128.079 41.755 127.464 42.115C126.984 42.4 126.444 42.46 126.294 42.025C126.114 41.515 126.759 40.93 127.704 40.405L127.674 40.315C126.729 40.84 125.379 41.605 125.724 42.4C125.949 42.91 126.759 42.895 127.404 42.43C127.989 41.995 128.394 41.275 128.769 40.54C130.404 41.32 130.254 45.925 125.859 45.925C123.909 45.925 122.694 44.695 122.574 43.39C122.379 41.23 123.699 39.61 126.114 40.495C126.144 40.435 126.159 40.39 126.159 40.39C124.359 39.745 123.369 38.59 123.369 37.285C123.369 36.385 123.714 35.65 124.329 35.395C125.334 34.975 126.789 35.59 127.779 37.255H127.884L128.169 35.71C126.459 35.065 125.259 34.96 124.134 35.335C123.009 35.695 122.304 36.295 122.229 37.36C122.094 39.22 124.149 39.76 125.364 40.15C123.114 39.58 121.029 40.975 121.404 43.315C121.614 44.62 123.279 46.09 125.784 46.09C130.224 46.09 130.434 41.755 129.144 40.675C129.654 40.825 130.299 40.855 131.004 40.405C132.069 39.73 132.864 38.26 132.294 37.27ZM130.959 40.345C130.074 40.915 129.234 40.63 128.814 40.435C128.934 40.195 129.054 39.955 129.159 39.73C129.609 38.815 130.044 37.705 130.434 37.45C130.839 37.165 131.319 37.21 131.709 37.78C132.189 38.5 131.919 39.715 130.959 40.345ZM147.32 42.985C146.555 44.485 145.4 45.37 144.05 45.565C141.41 45.97 139.25 44.59 138.44 41.95C137.63 39.295 138.56 36.265 141.125 35.71C143.09 35.29 144.875 36.58 145.97 38.32H146.075L146.525 36.61C145.25 35.77 144.275 35.35 142.655 35.35C139.685 35.35 137 37.75 137 40.72C137 43.69 139.565 46.09 142.52 46.09C145.175 46.09 146.615 44.71 147.425 43.03L147.32 42.985ZM154.803 44.125C154.098 45.04 152.853 45.895 151.203 45.895H149.988V40.165L153.768 40.48V39.715L149.988 40.045V35.62H151.038C152.703 35.62 153.633 36.445 154.323 37.225L154.398 37.165L154.083 35.5H148.473C148.473 35.5 148.473 35.59 148.473 35.62C148.698 35.755 148.803 35.98 148.803 36.505V45.01C148.803 45.535 148.698 45.76 148.473 45.895C148.473 45.925 148.473 46 148.473 46H154.563L154.893 44.185L154.803 44.125ZM160.946 35.35C157.976 35.35 155.501 37.75 155.501 40.72C155.501 43.675 157.976 46.09 160.946 46.09C163.916 46.09 166.391 43.675 166.391 40.72C166.391 37.75 163.916 35.35 160.946 35.35ZM162.476 45.73C159.971 46.495 157.751 44.59 156.941 41.935C156.131 39.295 156.911 36.475 159.416 35.71C161.921 34.945 164.141 36.85 164.951 39.49C165.761 42.145 164.981 44.965 162.476 45.73Z" fill="#E4BF79"/>
</svg>
