<svg width="20" height="20" viewBox="0 0 20 20" fill="none" xmlns="http://www.w3.org/2000/svg">
<path d="M9.99706 20C4.47271 19.9984 -0.0064056 15.5097 6.87668e-06 9.98157C0.00641936 4.46844 4.49516 -0.0064056 10.0126 6.88325e-06C15.5294 0.00641936 20.0032 4.48874 20 10.0072C19.9963 15.5236 15.5139 20.0016 9.99706 20ZM3.84001 9.9992C3.83414 9.9992 3.82879 9.9992 3.82291 9.9992C3.82291 10.7521 3.81757 11.5056 3.82559 12.2585C3.82826 12.5444 3.84055 12.8324 3.8833 13.1146C4.07086 14.3437 4.66669 15.2809 5.84498 15.7822C6.39165 16.0146 6.96984 16.1108 7.55979 16.1135C9.11909 16.1199 10.6789 16.1199 12.2382 16.1124C12.5765 16.1108 12.919 16.0911 13.2525 16.0349C14.5045 15.8244 15.4343 15.1853 15.9008 13.9653C16.0953 13.4561 16.176 12.9238 16.1766 12.3798C16.1776 10.8403 16.1798 9.30078 16.1744 7.76125C16.1734 7.46894 16.16 7.17397 16.1162 6.88541C15.9206 5.60665 15.2847 4.65493 14.0439 4.17293C13.5421 3.97788 13.0152 3.89078 12.4798 3.88811C10.8269 3.88063 9.17413 3.87902 7.52131 3.88864C6.90411 3.89238 6.30134 4.00246 5.73704 4.26698C4.48661 4.85319 3.93299 5.90857 3.85124 7.22206C3.79406 8.14386 3.84001 9.07313 3.84001 9.9992Z" fill="black"/>
<path d="M10.0024 5.04235C10.8157 5.04235 11.629 5.03487 12.4418 5.04663C12.7133 5.0509 12.989 5.08083 13.2535 5.14068C14.241 5.36458 14.8807 6.09079 14.9983 7.1045C15.0244 7.32894 15.0378 7.55604 15.0378 7.78208C15.041 9.30184 15.0512 10.8221 15.0314 12.3419C15.0266 12.7154 14.9694 13.1044 14.8508 13.4571C14.5435 14.3693 13.851 14.8572 12.9147 14.909C11.7514 14.9742 10.5838 14.9678 9.41779 14.9715C8.64509 14.9737 7.87025 14.9705 7.10022 14.9144C5.92246 14.8283 5.13212 14.0321 4.99799 12.8544C4.97448 12.6497 4.96112 12.4429 4.96059 12.2366C4.95738 10.6966 4.94776 9.15649 4.96753 7.61696C4.97234 7.2568 5.03433 6.88273 5.14922 6.5418C5.45755 5.62856 6.15064 5.15831 7.08525 5.08724C7.89483 5.02579 8.70975 5.04021 9.52253 5.02258C9.68231 5.01884 9.84262 5.02205 10.0024 5.02205C10.0024 5.02899 10.0024 5.03594 10.0024 5.04235ZM13.2509 10.0131C13.2503 8.2037 11.8102 6.75181 10.0126 6.74968C8.19728 6.74754 6.75074 8.19141 6.74913 10.0067C6.74753 11.8027 8.19728 13.2455 10.0072 13.2503C11.7925 13.2546 13.2509 11.799 13.2509 10.0131ZM13.2621 6.11805C12.9056 6.12072 12.6182 6.41142 12.6198 6.76731C12.6208 7.13389 12.9158 7.41871 13.2861 7.41176C13.642 7.40482 13.9263 7.10877 13.9188 6.75342C13.9113 6.39699 13.6206 6.11537 13.2621 6.11805Z" fill="black"/>
<path d="M12.0966 10.0008C12.0955 11.1625 11.1599 12.0971 9.99867 12.0961C8.83748 12.095 7.90125 11.1577 7.90286 9.99813C7.90393 8.83693 8.84068 7.90178 10.0013 7.90285C11.1636 7.90445 12.0982 8.8396 12.0966 10.0008Z" fill="black"/>
</svg>
