<?xml version="1.0" encoding="utf-8"?>
<!-- Generator: Adobe Illustrator 26.0.1, SVG Export Plug-In . SVG Version: 6.00 Build 0)  -->
<svg version="1.1" id="Layer_1" xmlns="http://www.w3.org/2000/svg" xmlns:xlink="http://www.w3.org/1999/xlink" x="0px" y="0px"
	 viewBox="0 0 383 384" style="enable-background:new 0 0 383 384;" xml:space="preserve">
<g>
	<g>
		<path d="M191.32,380.26C87.94,380.23,4.12,296.23,4.24,192.78C4.36,89.61,88.36,5.87,191.61,5.99
			c103.24,0.12,186.96,84,186.9,187.27C378.44,296.49,294.56,380.29,191.32,380.26z M76.1,193.11c-0.11,0-0.21,0-0.32,0
			c0,14.09-0.1,28.19,0.05,42.28c0.05,5.35,0.28,10.74,1.08,16.02c3.51,23,14.66,40.54,36.71,49.92c10.23,4.35,21.05,6.15,32.09,6.2
			c29.18,0.12,58.37,0.12,87.55-0.02c6.33-0.03,12.74-0.4,18.98-1.45c23.43-3.94,40.83-15.9,49.56-38.73
			c3.64-9.53,5.15-19.49,5.16-29.67c0.02-28.81,0.06-57.62-0.04-86.43c-0.02-5.47-0.27-10.99-1.09-16.39
			c-3.66-23.93-15.56-41.74-38.78-50.76c-9.39-3.65-19.25-5.28-29.27-5.33c-30.93-0.14-61.86-0.17-92.79,0.01
			c-11.55,0.07-22.83,2.13-33.39,7.08c-23.4,10.97-33.76,30.72-35.29,55.3C75.24,158.39,76.1,175.78,76.1,193.11z"/>
		<path d="M191.42,100.35c15.22,0,30.44-0.14,45.65,0.08c5.08,0.08,10.24,0.64,15.19,1.76c18.48,4.19,30.45,17.78,32.65,36.75
			c0.49,4.2,0.74,8.45,0.74,12.68c0.06,28.44,0.25,56.89-0.12,85.33c-0.09,6.99-1.16,14.27-3.38,20.87
			c-5.75,17.07-18.71,26.2-36.23,27.17c-21.77,1.22-43.62,1.1-65.44,1.17c-14.46,0.04-28.96-0.02-43.37-1.07
			c-22.04-1.61-36.83-16.51-39.34-38.55c-0.44-3.83-0.69-7.7-0.7-11.56c-0.06-28.82-0.24-57.64,0.13-86.45
			c0.09-6.74,1.25-13.74,3.4-20.12c5.77-17.09,18.74-25.89,36.23-27.22c15.15-1.15,30.4-0.88,45.61-1.21
			c2.99-0.07,5.99-0.01,8.98-0.01C191.42,100.1,191.42,100.23,191.42,100.35z M252.21,193.37c-0.01-33.86-26.96-61.03-60.6-61.07
			c-33.97-0.04-61.04,26.98-61.07,60.95c-0.03,33.61,27.1,60.61,60.97,60.7C224.92,254.03,252.21,226.79,252.21,193.37z
			 M252.42,120.48c-6.67,0.05-12.05,5.49-12.02,12.15c0.02,6.86,5.54,12.19,12.47,12.06c6.66-0.13,11.98-5.67,11.84-12.32
			C264.57,125.7,259.13,120.43,252.42,120.48z"/>
		<path d="M230.61,193.14c-0.02,21.74-17.53,39.23-39.26,39.21c-21.73-0.02-39.25-17.56-39.22-39.26
			c0.02-21.73,17.55-39.23,39.27-39.21C213.15,153.91,230.64,171.41,230.61,193.14z"/>
	</g>
</g>
</svg>
