<?xml version="1.0" encoding="utf-8"?>
<!-- Generator: Adobe Illustrator 26.0.1, SVG Export Plug-In . SVG Version: 6.00 Build 0)  -->
<svg version="1.1" id="Layer_1" xmlns="http://www.w3.org/2000/svg" xmlns:xlink="http://www.w3.org/1999/xlink" x="0px" y="0px"
	 viewBox="0 0 513 510" style="enable-background:new 0 0 513 510;" xml:space="preserve">
<g>
	<path d="M241,0c10.67,0,21.33,0,32,0c1.28,0.28,2.55,0.72,3.85,0.82c39.86,2.98,77.18,14.42,111.18,35.35
		c66.08,40.68,106.79,99.2,121.05,175.71c1.73,9.29,2.64,18.74,3.93,28.11c0,10.67,0,21.33,0,32c-0.41,3.28-0.87,6.56-1.22,9.85
		c-5.48,50.63-23.83,96.06-56.15,135.44c-40.19,48.97-91.6,79.39-154.05,90.75c-9.46,1.72-19.05,2.66-28.58,3.96
		c-10.67,0-21.33,0-32,0c-6.25-0.77-12.51-1.44-18.74-2.32c-47.23-6.72-89.65-24.71-126.52-55.03
		C46.8,414.41,16.32,363.07,4.98,300.61C3.26,291.14,2.31,281.54,1,272c0-10.67,0-21.33,0-32c0.41-3.28,0.85-6.55,1.21-9.84
		c5.92-54.23,26.43-102.18,62.6-143.06c39.78-44.95,89.32-72.91,148.58-83.24C222.54,2.27,231.8,1.27,241,0z M279.42,386.82
		c0-16.11-0.05-31.75,0.01-47.39c0.08-21.16-0.02-42.32,0.46-63.46c0.26-11.48,6.35-20.25,15.66-26.49
		c18.05-12.08,40.85-3.99,46.71,16.83c1.95,6.94,2.6,14.43,2.66,21.68c0.28,31.15,0.12,62.31,0.12,93.47c0,1.76,0,3.51,0,5.21
		c21.14,0,41.56,0,62.11,0c0.08-1.64,0.2-2.95,0.2-4.27c0.01-34.16,0.08-68.31-0.06-102.46c-0.03-6.81-0.52-13.65-1.33-20.42
		c-4.36-36.73-26.34-59.92-61.72-63.96c-25.48-2.91-47.05,4.83-62.24,26.68c-0.5,0.72-1.19,1.3-2.6,2.79
		c0-7.72-0.19-14.34,0.07-20.94c0.15-3.69-0.98-4.88-4.77-4.84c-17.83,0.19-35.65,0.07-53.48,0.1c-1.28,0-2.56,0.25-3.81,0.38
		c0,62.55,0,124.77,0,187.09C238.08,386.82,258.36,386.82,279.42,386.82z M182.42,386.86c0.11-1.27,0.24-2.08,0.24-2.89
		c0.01-60.16-0.02-120.31,0.09-180.47c0.01-3.88-1.74-4.23-4.84-4.22c-17.66,0.09-35.33,0.04-52.99,0.06
		c-1.45,0-2.89,0.21-4.35,0.33c0,62.63,0,124.84,0,187.18C141.26,386.86,161.57,386.86,182.42,386.86z M116.67,141.45
		c0.02,18.99,14.56,32.51,34.84,32.41c20.43-0.1,35.27-13.67,35.25-32.23c-0.02-18.95-14.55-32.59-34.77-32.63
		C131.2,108.97,116.66,122.33,116.67,141.45z"/>
</g>
</svg>
