<svg width="20" height="20" viewBox="0 0 20 20" fill="none" xmlns="http://www.w3.org/2000/svg">
<path d="M9.37518 0C9.79199 0 10.2084 0 10.6252 0C10.6752 0.0109377 10.7248 0.0281255 10.7756 0.0320319C12.3327 0.14844 13.7905 0.595324 15.1187 1.41292C17.7 3.00201 19.2902 5.28799 19.8473 8.27672C19.9148 8.63962 19.9504 9.00877 20.0008 9.37479C20.0008 9.7916 20.0008 10.208 20.0008 10.6248C19.9848 10.7529 19.9668 10.8811 19.9531 11.0096C19.7391 12.9874 19.0222 14.762 17.7597 16.3003C16.1898 18.2132 14.1815 19.4016 11.742 19.8453C11.3725 19.9125 10.9979 19.9492 10.6256 20C10.2088 20 9.79238 20 9.37557 20C9.13143 19.9699 8.88689 19.9437 8.64353 19.9094C6.79857 19.6469 5.14151 18.9441 3.70124 17.7597C1.7891 16.1882 0.598449 14.1827 0.155472 11.7428C0.088283 11.3729 0.0511729 10.9979 0 10.6252C0 10.2084 0 9.79199 0 9.37518C0.0160159 9.24706 0.0332038 9.11932 0.0472666 8.9908C0.278521 6.8724 1.07971 4.99932 2.49263 3.40241C4.04656 1.64652 5.98176 0.554308 8.29665 0.150784C8.65408 0.0886736 9.0158 0.0496103 9.37518 0ZM10.876 15.1105C10.876 14.4811 10.874 13.8702 10.8764 13.2592C10.8795 12.4327 10.8756 11.6061 10.8944 10.7803C10.9045 10.3318 11.1424 9.98926 11.5061 9.7455C12.2112 9.27362 13.1018 9.58964 13.3307 10.4029C13.4069 10.674 13.4323 10.9666 13.4346 11.2498C13.4456 12.4666 13.4393 13.6839 13.4393 14.9011C13.4393 14.9698 13.4393 15.0382 13.4393 15.1046C14.2651 15.1046 15.0628 15.1046 15.8655 15.1046C15.8687 15.0405 15.8734 14.9894 15.8734 14.9378C15.8737 13.6034 15.8765 12.2694 15.871 10.9354C15.8698 10.6693 15.8507 10.4022 15.8191 10.1377C15.6487 8.7029 14.7901 7.79703 13.4081 7.63921C12.4127 7.52554 11.5701 7.82789 10.9768 8.68142C10.9572 8.70955 10.9303 8.7322 10.8752 8.79041C10.8752 8.48884 10.8678 8.23024 10.8779 7.97242C10.8838 7.82828 10.8397 7.78179 10.6916 7.78336C9.99512 7.79078 9.29901 7.78609 8.60251 7.78726C8.55251 7.78726 8.50251 7.79703 8.45368 7.80211C8.45368 10.2455 8.45368 12.676 8.45368 15.1105C9.26112 15.1105 10.0533 15.1105 10.876 15.1105ZM7.08686 15.112C7.09115 15.0624 7.09623 15.0308 7.09623 14.9991C7.09662 12.6491 7.09545 10.2994 7.09975 7.94937C7.10014 7.79781 7.03178 7.78414 6.91068 7.78453C6.22083 7.78804 5.53058 7.78609 4.84072 7.78687C4.78408 7.78687 4.72783 7.79507 4.67079 7.79976C4.67079 10.2463 4.67079 12.6764 4.67079 15.1116C5.47901 15.112 6.27239 15.112 7.08686 15.112ZM4.51845 5.5255C4.51923 6.26731 5.08721 6.79545 5.87941 6.79154C6.67747 6.78763 7.25717 6.25754 7.25639 5.53253C7.25561 4.79228 6.68802 4.25946 5.89816 4.2579C5.08604 4.25672 4.51806 4.77861 4.51845 5.5255Z" fill="black"/>
</svg>
