<svg width="20" height="20" viewBox="0 0 20 20" fill="none" xmlns="http://www.w3.org/2000/svg">
<path d="M10.6251 20C10.2087 20 9.79171 20 9.37526 20C9.13155 19.9697 8.8868 19.9437 8.64361 19.9087C6.65375 19.624 4.89507 18.8275 3.39158 17.4928C1.65535 15.9511 0.570918 14.0343 0.156037 11.7467C0.0892385 11.3775 0.0516644 11.0025 0 10.6301C0 10.2139 0 9.79713 0 9.38092C0.0120028 9.31781 0.0250494 9.2547 0.0349648 9.19159C0.108026 8.71696 0.144034 8.23295 0.258322 7.76824C1.01659 4.67848 2.8311 2.4128 5.67734 1.00144C7.56231 0.0667939 9.57044 -0.203899 11.6428 0.14868C14.2375 0.590446 16.3526 1.86933 17.9479 3.95872C19.6173 6.14564 20.2597 8.62986 19.9059 11.3545C19.645 13.3626 18.8184 15.1286 17.4683 16.6375C15.9293 18.3581 14.0183 19.4325 11.7419 19.8441C11.3724 19.9113 10.9977 19.9489 10.6251 20ZM10.0046 3.35214C6.33593 3.34536 3.34984 6.32558 3.34253 10.0016C3.33522 13.6666 6.31923 16.6526 9.99575 16.6599C13.6629 16.6672 16.6511 13.6849 16.6579 10.0104C16.6641 6.34332 13.6822 3.35892 10.0046 3.35214Z" fill="black"/>
<path d="M8.09618 11.3921C8.09618 10.4637 8.09618 9.54887 8.09618 8.61996C9.37317 8.61996 10.6121 8.61996 11.8692 8.61996C11.9658 9.53949 11.9632 10.4585 11.8708 11.3921C10.6272 11.3921 9.38779 11.3921 8.09618 11.3921Z" fill="black"/>
<path d="M8.27048 7.5617C8.474 6.58011 8.70362 5.62825 9.32046 4.82817C9.77709 4.23619 10.2202 4.24089 10.6815 4.82765C11.1412 5.41232 11.3724 6.10131 11.5603 6.80751C11.625 7.05056 11.673 7.29778 11.733 7.5617C10.5735 7.5617 9.43893 7.5617 8.27048 7.5617Z" fill="black"/>
<path d="M8.30075 12.4436C9.43267 12.4436 10.563 12.4436 11.7325 12.4436C11.6751 12.6986 11.6255 12.9422 11.5645 13.1826C11.4043 13.8148 11.1981 14.4307 10.8287 14.9747C10.6992 15.1651 10.5375 15.3429 10.3595 15.4895C10.121 15.6856 9.87991 15.6919 9.64768 15.49C9.4405 15.3101 9.24898 15.0952 9.10338 14.8631C8.68745 14.1997 8.48236 13.4538 8.32215 12.6944C8.30754 12.6251 8.2971 12.5541 8.28562 12.4842C8.28405 12.4785 8.28927 12.4717 8.30075 12.4436Z" fill="black"/>
<path d="M7.05245 11.4062C6.90476 11.4062 6.75029 11.4062 6.59634 11.4062C5.97845 11.4062 5.36109 11.4025 4.7432 11.4088C4.60595 11.4103 4.53968 11.3822 4.50837 11.2314C4.3325 10.3985 4.32571 9.56867 4.5282 8.74095C4.54124 8.68723 4.62004 8.6116 4.66858 8.61108C5.44876 8.60378 6.22895 8.60638 7.00913 8.60795C7.02688 8.60795 7.04462 8.61942 7.05297 8.62203C7.05245 9.54729 7.05245 10.4658 7.05245 11.4062Z" fill="black"/>
<path d="M12.9234 8.60535C13.0951 8.60535 13.2496 8.60535 13.404 8.60535C14.0219 8.60535 14.6393 8.609 15.2572 8.60274C15.3939 8.60117 15.4602 8.62882 15.492 8.78007C15.6674 9.61301 15.6747 10.4428 15.4722 11.2705C15.4591 11.3243 15.3809 11.4004 15.3318 11.4009C14.5516 11.4082 13.7714 11.4056 12.9912 11.4041C12.9735 11.4041 12.9558 11.3926 12.9328 11.3848C12.9297 11.3592 12.9234 11.3342 12.9234 11.3097C12.9234 10.4147 12.9234 9.52069 12.9234 8.60535Z" fill="black"/>
<path d="M12.8049 7.55857C12.6802 7.06725 12.5795 6.57698 12.4282 6.10236C12.2794 5.63503 12.0801 5.18388 11.9084 4.73898C12.8884 4.8772 14.6748 6.46641 15.0396 7.55857C14.2917 7.55857 13.5496 7.55857 12.8049 7.55857Z" fill="black"/>
<path d="M15.0646 12.455C14.3611 13.8294 13.3117 14.7671 11.8432 15.3205C12.3494 14.3932 12.6051 13.4345 12.7804 12.455C13.5423 12.455 14.2896 12.455 15.0646 12.455Z" fill="black"/>
<path d="M8.14106 4.72386C7.64686 5.62565 7.39532 6.57751 7.21841 7.56327C6.46745 7.56327 5.72223 7.56327 4.97649 7.56327C5.11113 6.66982 6.97261 4.98934 8.14106 4.72386Z" fill="black"/>
<path d="M4.93108 12.4462C5.71857 12.4462 6.46379 12.4462 7.21789 12.4462C7.39584 13.4324 7.64633 14.3895 8.15933 15.319C6.68715 14.7671 5.63977 13.8288 4.93108 12.4462Z" fill="black"/>
</svg>
