<?xml version="1.0" encoding="utf-8"?>
<!-- Generator: Adobe Illustrator 26.0.1, SVG Export Plug-In . SVG Version: 6.00 Build 0)  -->
<svg version="1.1" id="Layer_1" xmlns="http://www.w3.org/2000/svg" xmlns:xlink="http://www.w3.org/1999/xlink" x="0px" y="0px"
	 viewBox="0 0 382.98 387.09" style="enable-background:new 0 0 382.98 387.09;" xml:space="preserve">
<g>
	<path d="M203.34,386.29c-7.98,0-15.97,0-23.95,0c-4.67-0.58-9.36-1.08-14.02-1.75c-38.13-5.46-71.83-20.73-100.64-46.32
		c-33.27-29.56-54.05-66.31-62-110.17c-1.28-7.08-2-14.27-2.99-21.41c0-7.98,0-15.97,0-23.95c0.23-1.21,0.48-2.42,0.67-3.63
		c1.4-9.1,2.09-18.38,4.28-27.29C19.22,92.53,53.99,49.09,108.53,22.03C144.65,4.11,183.13-1.08,222.84,5.68
		c49.72,8.47,90.25,32.99,120.82,73.05c31.99,41.93,44.3,89.56,37.52,141.8c-5,38.5-20.84,72.36-46.71,101.29
		c-29.49,32.99-66.11,53.59-109.73,61.48C217.66,384.59,210.48,385.31,203.34,386.29z M191.45,67.1
		c-70.3-0.13-127.52,57.01-127.66,127.49c-0.14,70.27,57.04,127.52,127.49,127.66c70.27,0.14,127.53-57.04,127.66-127.49
		C319.06,124.45,261.92,67.23,191.45,67.1z"/>
	<path d="M154.88,221.25c0-17.8,0-35.34,0-53.15c24.47,0,48.21,0,72.3,0c1.85,17.63,1.8,35.25,0.03,53.15
		C203.38,221.25,179.63,221.25,154.88,221.25z"/>
	<path d="M158.22,147.81c3.9-18.82,8.3-37.07,20.12-52.41c8.75-11.35,17.24-11.26,26.08-0.01c8.81,11.21,13.24,24.42,16.84,37.96
		c1.24,4.66,2.16,9.4,3.31,14.46C202.35,147.81,180.61,147.81,158.22,147.81z"/>
	<path d="M158.8,241.41c21.69,0,43.35,0,65.76,0c-1.1,4.89-2.05,9.56-3.22,14.17c-3.07,12.12-7.02,23.93-14.1,34.36
		c-2.48,3.65-5.58,7.06-8.99,9.87c-4.57,3.76-9.19,3.88-13.64,0.01c-3.97-3.45-7.64-7.57-10.43-12.02
		c-7.97-12.72-11.9-27.02-14.97-41.58c-0.28-1.33-0.48-2.69-0.7-4.03C158.48,242.08,158.58,241.95,158.8,241.41z"/>
	<path d="M134.88,221.52c-2.83,0-5.79,0-8.74,0c-11.84,0-23.67-0.07-35.51,0.05c-2.63,0.03-3.9-0.51-4.5-3.4
		c-3.37-15.97-3.5-31.88,0.38-47.75c0.25-1.03,1.76-2.48,2.69-2.49c14.95-0.14,29.9-0.09,44.85-0.06c0.34,0,0.68,0.22,0.84,0.27
		C134.88,185.88,134.88,203.49,134.88,221.52z"/>
	<path d="M247.38,167.82c3.29,0,6.25,0,9.21,0c11.84,0,23.67,0.07,35.51-0.05c2.62-0.03,3.89,0.5,4.5,3.4
		c3.36,15.97,3.5,31.88-0.38,47.75c-0.25,1.03-1.75,2.49-2.69,2.5c-14.95,0.14-29.9,0.09-44.85,0.06c-0.34,0-0.68-0.22-1.12-0.37
		c-0.06-0.49-0.18-0.97-0.18-1.44C247.38,202.51,247.38,185.37,247.38,167.82z"/>
	<path d="M245.11,147.75c-2.39-9.42-4.32-18.82-7.22-27.92c-2.85-8.96-6.67-17.61-9.96-26.14c18.78,2.65,53.01,33.12,60,54.06
		C273.6,147.75,259.38,147.75,245.11,147.75z"/>
	<path d="M288.41,241.63c-13.48,26.35-33.59,44.33-61.73,54.94c9.7-17.78,14.6-36.16,17.96-54.94
		C259.24,241.63,273.56,241.63,288.41,241.63z"/>
	<path d="M155.74,93.4c-9.47,17.29-14.29,35.54-17.68,54.44c-14.39,0-28.67,0-42.96,0C97.68,130.71,133.35,98.49,155.74,93.4z"/>
	<path d="M94.23,241.46c15.09,0,29.37,0,43.82,0c3.41,18.91,8.21,37.26,18.04,55.08C127.88,285.96,107.81,267.97,94.23,241.46z"/>
</g>
</svg>
